<svg width="20" height="20" viewBox="0 0 20 20" fill="none" xmlns="http://www.w3.org/2000/svg">
<g clip-path="url(#clip0_141_1130)">
<path d="M19.4323 4.77165C19.3947 4.77035 18.6222 4.74427 17.4884 4.76933V2.44455C17.4884 2.10184 17.1957 1.83004 16.8512 1.85835C14.5903 2.0471 11.7139 3.04612 10 4.86827C8.28612 3.04612 5.40969 2.0471 3.14882 1.85835C2.8049 1.83035 2.51165 2.10094 2.51165 2.44455V4.83219C1.86741 4.80788 1.25804 4.79074 0.605686 4.77157C0.276667 4.76117 0 5.02619 0 5.35953V16.0721C0 16.3816 0.239882 16.6382 0.548745 16.659C2.88867 16.8165 6.80824 16.8342 9.76926 18.0971C10.0331 18.2098 10.27 18.0804 10.2308 18.0971C13.1918 16.8342 17.1106 16.8165 19.4513 16.659C19.7602 16.6382 20.0001 16.3816 20.0001 16.0721V5.35953C20 5.04263 19.749 4.7827 19.4323 4.77165ZM16.3119 3.10616V13.188C14.6156 13.5675 12.4658 14.3772 10.5882 16.0941C10.5882 15.5763 10.5882 6.26294 10.5882 5.98286C11.8753 4.37698 14.3128 3.40906 16.3119 3.10616ZM3.68812 3.10616C5.68722 3.40906 8.12471 4.37698 9.41177 5.98286V16.0941C7.5342 14.3772 5.38443 13.5675 3.68812 13.188V3.10616ZM1.17647 15.5185V5.96533C1.59769 5.9778 2.0482 5.99188 2.51165 6.00957V13.6675C2.51165 13.9505 2.71322 14.1934 2.99137 14.2456C4.33455 14.4977 6.08122 15.0449 7.70914 16.2232C5.38659 15.7023 2.95553 15.6186 1.17647 15.5185ZM18.8235 15.5185C17.0474 15.6184 14.6143 15.7021 12.2908 16.2232C13.9187 15.0449 15.6655 14.4977 17.0086 14.2456C17.2867 14.1934 17.4883 13.9505 17.4883 13.6675V5.94619C18.0297 5.93408 18.4909 5.93392 18.8235 5.93694V15.5185H18.8235Z" fill="#2E2E2E" stroke="#2E2E2E" stroke-width="0.5"/>
</g>
<defs>
<clipPath id="clip0_141_1130">
<rect width="20" height="20" fill="white"/>
</clipPath>
</defs>
</svg>
