<svg width="22" height="22" viewBox="0 0 22 22" fill="none" xmlns="http://www.w3.org/2000/svg">
<g clip-path="url(#clip0_141_85)">
<path d="M21.3755 5.24879C21.3341 5.24736 20.4845 5.21868 19.2372 5.24624V2.68898C19.2372 2.312 18.9153 2.01302 18.5363 2.04416C16.0493 2.25178 12.8853 3.3507 11 5.35508C9.11473 3.3507 5.95066 2.25178 3.46371 2.04416C3.08539 2.01336 2.76281 2.31101 2.76281 2.68898V5.31539C2.05415 5.28865 1.38384 5.26979 0.666255 5.2487C0.304333 5.23727 0 5.52879 0 5.89546V17.6793C0 18.0198 0.263871 18.302 0.60362 18.3249C3.17753 18.4981 7.48906 18.5176 10.7462 19.9068C11.0365 20.0308 11.297 19.8884 11.2539 19.9068C14.5109 18.5176 18.8217 18.4982 21.3965 18.3249C21.7362 18.302 22.0001 18.0198 22.0001 17.6793V5.89546C22 5.54686 21.7239 5.26095 21.3755 5.24879ZM17.9431 3.41675V14.5068C16.0771 14.9242 13.7124 15.8149 11.6471 17.7035C11.6471 17.1339 11.6471 6.88921 11.6471 6.58112C13.0628 4.81465 15.7441 3.74994 17.9431 3.41675ZM4.05693 3.41675C6.25594 3.74994 8.93718 4.81465 10.3529 6.58112V17.7035C8.28762 15.8149 5.92287 14.9242 4.05693 14.5068V3.41675ZM1.29412 17.0704V6.56184C1.75746 6.57556 2.25302 6.59105 2.76281 6.6105V15.0342C2.76281 15.3455 2.98454 15.6127 3.29051 15.6701C4.768 15.9475 6.68934 16.5494 8.48005 17.8455C5.92525 17.2725 3.25108 17.1804 1.29412 17.0704ZM20.7059 17.0704C18.7521 17.1803 16.0757 17.2723 13.5199 17.8455C15.3106 16.5494 17.232 15.9475 18.7094 15.6701C19.0154 15.6127 19.2371 15.3455 19.2371 15.0342V6.54079C19.8327 6.52746 20.34 6.52729 20.7058 6.53061V17.0704H20.7059Z" fill="#B5B5BD"/>
</g>
<defs>
<clipPath id="clip0_141_85">
<rect width="22" height="22" fill="white"/>
</clipPath>
</defs>
</svg>
