<svg width="22" height="24" viewBox="0 0 22 24" fill="none" xmlns="http://www.w3.org/2000/svg">
<path d="M11.8333 5.12499C11.8333 5.67727 12.281 6.12499 12.8333 6.12499C13.3855 6.12499 13.8333 5.67727 13.8333 5.12499H11.8333ZM4.97611 15.75C5.52839 15.75 5.97611 15.3023 5.97611 14.75C5.97611 14.1977 5.52839 13.75 4.97611 13.75V15.75ZM4.83325 2.91666H9.83325V0.916656H4.83325V2.91666ZM2.83325 11.75V4.91665H0.833252V11.75H2.83325ZM11.8333 4.91666V5.12499H13.8333V4.91666H11.8333ZM4.97611 13.75H4.83325V15.75H4.97611V13.75ZM0.833252 11.75C0.833252 13.9591 2.62411 15.75 4.83325 15.75V13.75C3.72868 13.75 2.83325 12.8546 2.83325 11.75H0.833252ZM9.83325 2.91666C10.9378 2.91666 11.8333 3.81209 11.8333 4.91666H13.8333C13.8333 2.70752 12.0424 0.916656 9.83325 0.916656V2.91666ZM4.83325 0.916656C2.62411 0.916656 0.833252 2.70751 0.833252 4.91665H2.83325C2.83325 3.81209 3.72868 2.91666 4.83325 2.91666V0.916656Z" fill="#282828"/>
<rect x="9.16675" y="9.25" width="11" height="12.8333" rx="3" stroke="#282828" stroke-width="2"/>
</svg>
