<svg width="20" height="20" viewBox="0 0 20 20" fill="none" xmlns="http://www.w3.org/2000/svg">
<g clip-path="url(#clip0_141_1138)">
<path d="M8.752 17.8H10.75V16.162C13.342 15.874 14.764 14.362 14.764 12.202C14.764 7.738 7.978 8.854 7.978 7.324C7.978 6.82 8.374 6.46 9.274 6.46C10.462 6.46 11.776 6.874 12.784 7.702L14.476 5.488C13.45 4.624 12.19 4.084 10.75 3.886V2.176H8.752V3.868C6.196 4.174 4.81 5.812 4.81 7.63C4.81 12.256 11.614 10.942 11.614 12.58C11.614 13.156 10.966 13.57 9.904 13.57C8.266 13.57 6.934 12.85 6.07 11.986L4.432 14.308C5.458 15.298 6.844 15.982 8.752 16.162V17.8Z" fill="#2E2E2E"/>
</g>
<defs>
<clipPath id="clip0_141_1138">
<rect width="20" height="20" fill="white"/>
</clipPath>
</defs>
</svg>
