<svg width="24" height="24" viewBox="0 0 24 24" fill="none" xmlns="http://www.w3.org/2000/svg">
<path fill-rule="evenodd" clip-rule="evenodd" d="M23.5213 12.2737C23.522 11.4506 23.4492 10.6292 23.3036 9.81909H12V14.4607H18.4584C18.3251 15.195 18.0441 15.8947 17.6325 16.5173C17.2209 17.1399 16.6872 17.6726 16.0638 18.0829V21.0944H19.9422C22.2114 19.0045 23.5206 15.9283 23.5206 12.2737H23.5213Z" fill="#3E82F1"/>
<path fill-rule="evenodd" clip-rule="evenodd" d="M12 24C15.24 24 17.9568 22.9254 19.9422 21.0931L16.0638 18.0816C14.9892 18.8016 13.6146 19.2277 12 19.2277C8.87458 19.2277 6.22851 17.1169 5.28537 14.28H1.27615V17.3933C2.27578 19.3802 3.80792 21.0501 5.70156 22.2168C7.5952 23.3834 9.77581 24.0008 12 24Z" fill="#32A753"/>
<path fill-rule="evenodd" clip-rule="evenodd" d="M5.28604 14.2807C4.78356 12.8022 4.78356 11.1991 5.28604 9.72066V6.61145H1.27615C0.436986 8.28412 0 10.1296 0 12.001C0 13.8724 0.436986 15.7179 1.27615 17.3906L5.28604 14.2807Z" fill="#F9BB00"/>
<path d="M1.27615 6.61146L5.28604 9.72067C6.22986 6.88382 8.87526 4.77303 12.0006 4.77303C13.7629 4.77303 15.3445 5.37978 16.5883 6.56764L20.0305 3.12539C17.9521 1.18921 15.2359 7.37013e-07 12 7.37013e-07C9.77522 -0.000778984 7.59408 0.617134 5.70031 1.78468C3.80654 2.95223 2.27476 4.62341 1.27615 6.61146Z" fill="#E74133"/>
</svg>
