<svg width="22" height="24" viewBox="0 0 22 24" fill="none" xmlns="http://www.w3.org/2000/svg">
<path d="M1.83331 10.1832C1.83331 9.22964 2.28663 8.33288 3.05447 7.76747L11 1.91669L18.9455 7.76747C19.7133 8.33288 20.1666 9.22964 20.1666 10.1832V19.5834C20.1666 20.9641 19.0474 22.0834 17.6666 22.0834H14.75C14.1977 22.0834 13.75 21.6356 13.75 21.0834V15.7084C13.75 15.4322 13.5261 15.2084 13.25 15.2084H8.74998C8.47384 15.2084 8.24998 15.4322 8.24998 15.7084V21.0834C8.24998 21.6356 7.80226 22.0834 7.24998 22.0834H4.33331C2.9526 22.0834 1.83331 20.9641 1.83331 19.5834V10.1832Z" stroke="#B5B5BD" stroke-width="2" stroke-linecap="round" stroke-linejoin="round"/>
</svg>
