<svg width="110" height="104" viewBox="0 0 110 104" fill="none" xmlns="http://www.w3.org/2000/svg">
<path d="M20.1808 13.4272L52.0806 4.87966C63.7054 1.76481 72.1262 6.8462 75.3639 18.9296L84.2402 52.0564C87.4779 64.1398 82.726 72.7508 71.1012 75.8656L39.2014 84.4132C27.5766 87.528 19.1862 82.4385 15.9485 70.3551L7.07218 37.2283C3.83444 25.1449 8.55601 16.542 20.1808 13.4272Z" fill="url(#paint0_linear_209_188)"/>
<g filter="url(#filter0_f_209_188)">
<path d="M29.1511 25.6596L50.8164 19.8544C58.7116 17.7389 64.3324 20.8227 66.3576 28.3812L71.9099 49.1027C73.9352 56.6611 70.6094 62.1422 62.7143 64.2577L41.0489 70.0629C33.1537 72.1784 27.5536 69.0891 25.5283 61.5306L19.976 40.8091C17.9507 33.2507 21.2559 27.7751 29.1511 25.6596Z" fill="#0062FF" fill-opacity="0.5"/>
</g>
<g filter="url(#filter1_b_209_188)">
<mask id="path-3-outside-1_209_188" maskUnits="userSpaceOnUse" x="25.1971" y="19.8064" width="78" height="78" fill="black">
<rect fill="white" x="25.1971" y="19.8064" width="78" height="78"/>
<path d="M80.111 20.8064H47.5145C34.7692 20.8064 26.1971 29.7544 26.1971 43.0637V73.7803C26.1971 87.052 34.7692 96 47.5145 96H80.111C92.8563 96 101.391 87.052 101.391 73.7803V43.0637C101.391 29.7544 92.8563 20.8064 80.111 20.8064Z"/>
</mask>
<path d="M80.111 20.8064H47.5145C34.7692 20.8064 26.1971 29.7544 26.1971 43.0637V73.7803C26.1971 87.052 34.7692 96 47.5145 96H80.111C92.8563 96 101.391 87.052 101.391 73.7803V43.0637C101.391 29.7544 92.8563 20.8064 80.111 20.8064Z" fill="#3EA0FE" fill-opacity="0.35"/>
<path d="M80.111 21.8064C80.6633 21.8064 81.111 21.3587 81.111 20.8064C81.111 20.2541 80.6633 19.8064 80.111 19.8064V21.8064ZM80.111 19.8064C79.5587 19.8064 79.111 20.2541 79.111 20.8064C79.111 21.3587 79.5587 21.8064 80.111 21.8064V19.8064ZM80.111 19.8064H47.5145V21.8064H80.111V19.8064ZM47.5145 19.8064C40.8991 19.8064 35.2987 22.1342 31.3542 26.2524C27.4132 30.3668 25.1971 36.1923 25.1971 43.0637H27.1971C27.1971 36.6258 29.2671 31.3227 32.7985 27.6358C36.3263 23.9527 41.3847 21.8064 47.5145 21.8064V19.8064ZM25.1971 43.0637V73.7803H27.1971V43.0637H25.1971ZM25.1971 73.7803C25.1971 80.6336 27.4137 86.4497 31.3546 90.5592C35.299 94.6723 40.8991 97 47.5145 97V95C41.3846 95 36.326 92.8537 32.7981 89.1749C29.2667 85.4924 27.1971 80.1987 27.1971 73.7803H25.1971ZM47.5145 97H80.111V95H47.5145V97ZM80.111 97C86.7266 97 92.3178 94.6721 96.253 90.5583C100.184 86.4484 102.391 80.6324 102.391 73.7803H100.391C100.391 80.1999 98.3299 85.4938 94.8077 89.1758C91.2894 92.8539 86.2407 95 80.111 95V97ZM102.391 73.7803V43.0637H100.391V73.7803H102.391ZM102.391 43.0637C102.391 36.1935 100.185 30.3682 96.2534 26.2533C92.3181 22.1343 86.7266 19.8064 80.111 19.8064V21.8064C86.2407 21.8064 91.2891 23.9525 94.8073 27.6349C98.3294 31.3213 100.391 36.6246 100.391 43.0637H102.391Z" fill="url(#paint1_linear_209_188)" mask="url(#path-3-outside-1_209_188)"/>
</g>
<g filter="url(#filter2_bd_209_188)">
<mask id="path-5-inside-2_209_188" fill="white">
<path fill-rule="evenodd" clip-rule="evenodd" d="M41.2985 45.3427C41.2985 50.5457 45.5274 54.7803 50.7318 54.7803C55.9324 54.7803 60.165 50.5457 60.165 45.3427C60.165 40.1397 55.9324 35.9052 50.7318 35.9052C45.5274 35.9052 41.2985 40.1397 41.2985 45.3427ZM92.7276 79.9782C94.0791 76.7681 94.7358 72.8723 93.4717 69.631C93.0503 68.5557 92.4202 67.5545 91.5357 66.6741C89.2163 64.3716 87.0487 62.2212 84.4712 60.6317C80.4246 58.1072 77.3004 61.6524 76.4577 62.786C75.7854 63.692 75.1911 64.6753 74.5888 65.672C74.4632 65.8796 74.3374 66.0879 74.2104 66.2962L74.1804 66.3458C72.3881 69.3145 70.33 72.7236 66.7814 74.7111C61.596 77.5823 57.6595 74.937 54.8276 73.0125C53.7647 72.2957 52.7322 71.6178 51.7034 71.1659C49.1676 70.0712 46.8862 71.3178 43.5001 75.6188C41.7235 77.8667 39.9621 80.0951 38.178 82.3157C37.1113 83.6441 37.3656 85.6933 38.8043 86.5816C41.101 87.9958 43.9025 88.7554 47.0684 88.7554H78.8834C80.6789 88.7554 82.4782 88.51 84.1941 87.949C88.0585 86.6868 91.1257 83.7961 92.7276 79.9782Z"/>
</mask>
<path fill-rule="evenodd" clip-rule="evenodd" d="M41.2985 45.3427C41.2985 50.5457 45.5274 54.7803 50.7318 54.7803C55.9324 54.7803 60.165 50.5457 60.165 45.3427C60.165 40.1397 55.9324 35.9052 50.7318 35.9052C45.5274 35.9052 41.2985 40.1397 41.2985 45.3427ZM92.7276 79.9782C94.0791 76.7681 94.7358 72.8723 93.4717 69.631C93.0503 68.5557 92.4202 67.5545 91.5357 66.6741C89.2163 64.3716 87.0487 62.2212 84.4712 60.6317C80.4246 58.1072 77.3004 61.6524 76.4577 62.786C75.7854 63.692 75.1911 64.6753 74.5888 65.672C74.4632 65.8796 74.3374 66.0879 74.2104 66.2962L74.1804 66.3458C72.3881 69.3145 70.33 72.7236 66.7814 74.7111C61.596 77.5823 57.6595 74.937 54.8276 73.0125C53.7647 72.2957 52.7322 71.6178 51.7034 71.1659C49.1676 70.0712 46.8862 71.3178 43.5001 75.6188C41.7235 77.8667 39.9621 80.0951 38.178 82.3157C37.1113 83.6441 37.3656 85.6933 38.8043 86.5816C41.101 87.9958 43.9025 88.7554 47.0684 88.7554H78.8834C80.6789 88.7554 82.4782 88.51 84.1941 87.949C88.0585 86.6868 91.1257 83.7961 92.7276 79.9782Z" fill="url(#paint2_linear_209_188)"/>
<path d="M93.4717 69.631L93.658 69.5583L93.6579 69.558L93.4717 69.631ZM92.7276 79.9782L92.5433 79.9006L92.5432 79.9008L92.7276 79.9782ZM91.5357 66.6741L91.6768 66.5323L91.6766 66.5321L91.5357 66.6741ZM84.4712 60.6317L84.3653 60.8014L84.3662 60.8019L84.4712 60.6317ZM76.4577 62.786L76.2971 62.6667L76.297 62.6669L76.4577 62.786ZM74.5888 65.672L74.4176 65.5685V65.5685L74.5888 65.672ZM74.2104 66.2962L74.0396 66.192L74.0392 66.1928L74.2104 66.2962ZM74.1804 66.3458L74.0092 66.2424L74.0092 66.2425L74.1804 66.3458ZM66.7814 74.7111L66.8783 74.8861L66.8792 74.8856L66.7814 74.7111ZM54.8276 73.0125L54.94 72.8471L54.9394 72.8467L54.8276 73.0125ZM51.7034 71.1659L51.7839 70.9828L51.7827 70.9823L51.7034 71.1659ZM43.5001 75.6188L43.657 75.7428L43.6572 75.7425L43.5001 75.6188ZM38.178 82.3157L38.0221 82.1904L38.022 82.1905L38.178 82.3157ZM38.8043 86.5816L38.6993 86.7518L38.6995 86.7519L38.8043 86.5816ZM84.1941 87.949L84.132 87.7589L84.1319 87.7589L84.1941 87.949ZM50.7318 54.5803C45.638 54.5803 41.4985 50.4354 41.4985 45.3427H41.0985C41.0985 50.656 45.4168 54.9803 50.7318 54.9803V54.5803ZM59.965 45.3427C59.965 50.4354 55.8219 54.5803 50.7318 54.5803V54.9803C56.0429 54.9803 60.365 50.6561 60.365 45.3427H59.965ZM50.7318 36.1052C55.8219 36.1052 59.965 40.2501 59.965 45.3427H60.365C60.365 40.0293 56.0429 35.7052 50.7318 35.7052V36.1052ZM41.4985 45.3427C41.4985 40.25 45.638 36.1052 50.7318 36.1052V35.7052C45.4168 35.7052 41.0985 40.0294 41.0985 45.3427H41.4985ZM93.2854 69.7036C94.5226 72.8762 93.885 76.7136 92.5433 79.9006L92.912 80.0558C94.2731 76.8225 94.9489 72.8684 93.658 69.5583L93.2854 69.7036ZM91.3946 66.8158C92.2584 67.6757 92.8737 68.6531 93.2855 69.7039L93.6579 69.558C93.227 68.4583 92.5819 67.4333 91.6768 66.5323L91.3946 66.8158ZM84.3662 60.8019C86.9207 62.3772 89.0722 64.5104 91.3948 66.816L91.6766 66.5321C89.3603 64.2328 87.1767 62.0651 84.5762 60.4614L84.3662 60.8019ZM76.6182 62.9054C77.0321 62.3485 78.0018 61.2071 79.3541 60.5151C80.6941 59.8294 82.4109 59.5821 84.3653 60.8014L84.577 60.462C82.4849 59.1568 80.6163 59.4198 79.1718 60.159C77.7397 60.8919 76.726 62.0899 76.2971 62.6667L76.6182 62.9054ZM74.7599 65.7754C75.3632 64.7773 75.9526 63.8022 76.6183 62.9052L76.297 62.6669C75.6181 63.5817 75.019 64.5734 74.4176 65.5685L74.7599 65.7754ZM74.3811 66.4003C74.5084 66.1916 74.6344 65.983 74.7599 65.7754L74.4176 65.5685C74.292 65.7762 74.1664 65.9842 74.0396 66.192L74.3811 66.4003ZM74.3516 66.4492L74.3816 66.3995L74.0392 66.1928L74.0092 66.2424L74.3516 66.4492ZM66.8792 74.8856C70.4808 72.8684 72.5634 69.4112 74.3516 66.4492L74.0092 66.2425C72.2128 69.2179 70.1791 72.5789 66.6837 74.5366L66.8792 74.8856ZM54.7152 73.1779C56.128 74.1381 57.8461 75.3001 59.8692 75.8531C61.903 76.4091 64.2375 76.3483 66.8783 74.8861L66.6846 74.5361C64.1399 75.9451 61.9134 75.9973 59.9747 75.4673C58.0251 74.9343 56.359 73.8115 54.94 72.8471L54.7152 73.1779ZM51.623 71.349C52.6328 71.7926 53.6512 72.4604 54.7158 73.1783L54.9394 72.8467C53.8781 72.131 52.8315 71.443 51.7839 70.9828L51.623 71.349ZM43.6572 75.7425C45.3466 73.5967 46.7428 72.2369 48.0161 71.5447C49.2736 70.8611 50.4135 70.8269 51.6242 71.3495L51.7827 70.9823C50.4576 70.4102 49.1889 70.4519 47.8251 71.1933C46.4772 71.926 45.0397 73.3399 43.3429 75.4951L43.6572 75.7425ZM38.3339 82.4409C40.1186 80.2196 41.8805 77.9906 43.657 75.7428L43.3432 75.4948C41.5665 77.7428 39.8057 79.9705 38.0221 82.1904L38.3339 82.4409ZM38.9094 86.4114C37.5838 85.593 37.3343 83.6858 38.3339 82.4409L38.022 82.1905C36.8883 83.6025 37.1474 85.7937 38.6993 86.7518L38.9094 86.4114ZM47.0684 88.5554C43.9347 88.5554 41.1705 87.8037 38.9092 86.4113L38.6995 86.7519C41.0315 88.1878 43.8702 88.9554 47.0684 88.9554V88.5554ZM78.8834 88.5554H47.0684V88.9554H78.8834V88.5554ZM84.1319 87.7589C82.4389 88.3124 80.6609 88.5554 78.8834 88.5554V88.9554C80.6969 88.9554 82.5176 88.7076 84.2562 88.1391L84.1319 87.7589ZM92.5432 79.9008C90.9629 83.6673 87.939 86.5154 84.132 87.7589L84.2562 88.1391C88.178 86.8581 91.2886 83.9249 92.9121 80.0556L92.5432 79.9008Z" fill="url(#paint3_linear_209_188)" fill-opacity="0.5" mask="url(#path-5-inside-2_209_188)"/>
</g>
<defs>
<filter id="filter0_f_209_188" x="0.393677" y="0.202637" width="91.0966" height="89.5115" filterUnits="userSpaceOnUse" color-interpolation-filters="sRGB">
<feFlood flood-opacity="0" result="BackgroundImageFix"/>
<feBlend mode="normal" in="SourceGraphic" in2="BackgroundImageFix" result="shape"/>
<feGaussianBlur stdDeviation="9.5" result="effect1_foregroundBlur_209_188"/>
</filter>
<filter id="filter1_b_209_188" x="1.19714" y="-4.1936" width="125.194" height="125.194" filterUnits="userSpaceOnUse" color-interpolation-filters="sRGB">
<feFlood flood-opacity="0" result="BackgroundImageFix"/>
<feGaussianBlur in="BackgroundImage" stdDeviation="12"/>
<feComposite in2="SourceAlpha" operator="in" result="effect1_backgroundBlur_209_188"/>
<feBlend mode="normal" in="SourceGraphic" in2="effect1_backgroundBlur_209_188" result="shape"/>
</filter>
<filter id="filter2_bd_209_188" x="22.5227" y="20.9052" width="86.6254" height="82.8502" filterUnits="userSpaceOnUse" color-interpolation-filters="sRGB">
<feFlood flood-opacity="0" result="BackgroundImageFix"/>
<feGaussianBlur in="BackgroundImage" stdDeviation="7.5"/>
<feComposite in2="SourceAlpha" operator="in" result="effect1_backgroundBlur_209_188"/>
<feColorMatrix in="SourceAlpha" type="matrix" values="0 0 0 0 0 0 0 0 0 0 0 0 0 0 0 0 0 0 127 0" result="hardAlpha"/>
<feOffset dx="5" dy="5"/>
<feGaussianBlur stdDeviation="5"/>
<feColorMatrix type="matrix" values="0 0 0 0 0.15375 0 0 0 0 0.522433 0 0 0 0 0.9 0 0 0 0.5 0"/>
<feBlend mode="normal" in2="effect1_backgroundBlur_209_188" result="effect2_dropShadow_209_188"/>
<feBlend mode="normal" in="SourceGraphic" in2="effect2_dropShadow_209_188" result="shape"/>
</filter>
<linearGradient id="paint0_linear_209_188" x1="6.88463" y1="16.9899" x2="93.3262" y2="46.0652" gradientUnits="userSpaceOnUse">
<stop stop-color="#39AFFD"/>
<stop offset="1" stop-color="#3A76FF"/>
</linearGradient>
<linearGradient id="paint1_linear_209_188" x1="38.1667" y1="29.5666" x2="86.1323" y2="88.973" gradientUnits="userSpaceOnUse">
<stop stop-color="white" stop-opacity="0.25"/>
<stop offset="1" stop-color="white" stop-opacity="0.06"/>
</linearGradient>
<linearGradient id="paint2_linear_209_188" x1="90.1334" y1="45.4489" x2="27.068" y2="47.6519" gradientUnits="userSpaceOnUse">
<stop stop-color="white"/>
<stop offset="1" stop-color="white" stop-opacity="0.2"/>
</linearGradient>
<linearGradient id="paint3_linear_209_188" x1="43.6225" y1="53.6339" x2="91.7051" y2="53.9183" gradientUnits="userSpaceOnUse">
<stop stop-color="white"/>
<stop offset="1" stop-color="white" stop-opacity="0"/>
</linearGradient>
</defs>
</svg>
