<svg width="24" height="24" viewBox="0 0 24 24" fill="none" xmlns="http://www.w3.org/2000/svg">
<path d="M9.33715 5.46631L10.8388 3.96477V15.8707C10.8388 16.512 11.3587 17.032 12 17.032C12.6414 17.032 13.1613 16.512 13.1613 15.8707V3.96485L14.6628 5.46631C14.8896 5.69307 15.1867 5.80649 15.4839 5.80649C15.7811 5.80649 16.0783 5.69315 16.305 5.46631C16.7585 5.01279 16.7585 4.27754 16.305 3.82402L12.8214 0.340331C12.7941 0.313157 12.7656 0.287454 12.7359 0.263144C12.7231 0.252615 12.7095 0.24348 12.6964 0.233648C12.6792 0.220719 12.6624 0.207558 12.6446 0.195558C12.6285 0.184797 12.6119 0.175506 12.5954 0.165674C12.5794 0.155997 12.5637 0.145932 12.5471 0.137107C12.5303 0.128126 12.5131 0.120539 12.4959 0.112487C12.4787 0.104281 12.4618 0.0957649 12.444 0.0884101C12.4275 0.0815198 12.4106 0.0760231 12.3938 0.0699844C12.3749 0.0631715 12.3563 0.0558942 12.3368 0.0500878C12.3201 0.0450555 12.3031 0.0413394 12.2863 0.0370814C12.2665 0.0320492 12.2469 0.026475 12.2267 0.0225266C12.2073 0.0187331 12.1877 0.016488 12.1682 0.0136235C12.1502 0.0110686 12.1326 0.00766222 12.1144 0.00588158C12.0786 0.00239773 12.0428 0.00069452 12.0069 0.000462263C12.0045 0.000462263 12.0023 0.000152588 12 0.000152588C11.9977 0.000152588 11.9954 0.000462263 11.9932 0.000462263C11.9572 0.000617101 11.9213 0.00239773 11.8855 0.00588158C11.8677 0.00766222 11.8504 0.0109912 11.8328 0.0134686C11.8129 0.0163331 11.7929 0.0186557 11.7731 0.0226041C11.7535 0.026475 11.7344 0.0318943 11.7151 0.0367717C11.6977 0.0411846 11.6802 0.0449781 11.6628 0.0501652C11.6442 0.0558167 11.626 0.0628619 11.6077 0.0694425C11.5903 0.0757134 11.5727 0.0814424 11.5555 0.0885649C11.5385 0.09561 11.5222 0.103894 11.5057 0.111713C11.4878 0.120074 11.4699 0.128049 11.4524 0.137339C11.4366 0.145777 11.4217 0.155377 11.4063 0.16459C11.3891 0.17481 11.3717 0.184564 11.3549 0.19579C11.3381 0.207016 11.3224 0.219558 11.3062 0.231558C11.292 0.242164 11.2775 0.251996 11.2637 0.263377C11.2355 0.286525 11.2084 0.311067 11.1825 0.336692C11.1813 0.337931 11.18 0.338938 11.1786 0.340176L7.69463 3.82402C7.24111 4.27754 7.24111 5.01279 7.69463 5.46631C8.14838 5.91983 8.88371 5.91968 9.33715 5.46631Z" fill="black"/>
<path d="M19.7417 7.74203H16.645C16.0036 7.74203 15.4837 8.26198 15.4837 8.90332C15.4837 9.54466 16.0036 10.0646 16.645 10.0646H18.5804V21.6774H5.41925V10.0646H7.35472C7.99605 10.0646 8.516 9.54466 8.516 8.90332C8.516 8.26198 7.99605 7.74203 7.35472 7.74203H4.25796C3.61662 7.74203 3.09668 8.26198 3.09668 8.90332V22.8387C3.09668 23.4801 3.61662 24 4.25796 24H19.7417C20.3831 24 20.903 23.4801 20.903 22.8387V8.90332C20.903 8.26198 20.3831 7.74203 19.7417 7.74203Z" fill="black"/>
</svg>
